<svg width="92" height="60" viewBox="0 0 92 60" fill="none" xmlns="http://www.w3.org/2000/svg">
<path d="M7 23L9.4687 26.6021L13.6574 27.8369L10.9944 31.2979L11.1145 35.6631L7 34.2L2.8855 35.6631L3.00556 31.2979L0.342604 27.8369L4.5313 26.6021L7 23Z" fill="#D9293A"/>
<path d="M24 23L26.4687 26.6021L30.6574 27.8369L27.9944 31.2979L28.1145 35.6631L24 34.2L19.8855 35.6631L20.0056 31.2979L17.3426 27.8369L21.5313 26.6021L24 23Z" fill="#D9293A"/>
<path d="M41 23L43.4687 26.6021L47.6574 27.8369L44.9944 31.2979L45.1145 35.6631L41 34.2L36.8855 35.6631L37.0056 31.2979L34.3426 27.8369L38.5313 26.6021L41 23Z" fill="#D9293A"/>
<path d="M58 23L60.4687 26.6021L64.6574 27.8369L61.9944 31.2979L62.1145 35.6631L58 34.2L53.8855 35.6631L54.0056 31.2979L51.3426 27.8369L55.5313 26.6021L58 23Z" fill="#D9293A"/>
<path d="M75 23L77.4687 26.6021L81.6574 27.8369L78.9944 31.2979L79.1145 35.6631L75 34.2L70.8855 35.6631L71.0056 31.2979L68.3426 27.8369L72.5313 26.6021L75 23Z" fill="#D9293A"/>
</svg>
